HIERARCHY
ROOT Hips
{
	OFFSET 0.000000 0.000000 0.000000 
	CHANNELS 6 Xposition Yposition Zposition Yrotation Zrotation Xrotation 
	JOINT Lumbar
	{
		OFFSET 0.000000 0.000000 0.000000 
		CHANNELS 3 Zrotation Xrotation Yrotation
		JOINT Neck
		{
			OFFSET 0.000000 0.445665 0.000000 
			CHANNELS 3 Zrotation Xrotation Yrotation
			End Site
			{
				OFFSET 0.000000 0.227535 0.000000 
			}
		}
		JOINT RightShoulder
		{
			OFFSET 0.019635 0.377685 0.194865 
			CHANNELS 3 Zrotation Xrotation Yrotation
			JOINT RightElbow
			{
				OFFSET 0.000000 -0.243375 0.000000 
				CHANNELS 2 Zrotation Yrotation
				JOINT RightWrist
				{
					OFFSET 0.000000 -0.264825 0.000000 
					CHANNELS 2 Zrotation Xrotation
					End Site
					{
						OFFSET 0.006600 -0.176220 0.000990 
					}
				}
			}
		}
		JOINT LeftShoulder
		{
			OFFSET 0.019635 0.377685 -0.194865 
			CHANNELS 3 Zrotation Xrotation Yrotation
			JOINT LeftElbow
			{
				OFFSET 0.000000 -0.243375 0.000000 
				CHANNELS 2 Zrotation Yrotation
				JOINT LeftWrist
				{
					OFFSET 0.000000 -0.264825 0.000000 
					CHANNELS 2 Zrotation Xrotation
					End Site
					{
						OFFSET 0.006600 -0.176220 -0.000990 
					}
				}
			}
		}
	}
	JOINT RightHip
	{
		OFFSET 0.052140 -0.069960 0.075570 
		CHANNELS 3 Zrotation Xrotation Yrotation
		JOINT RightKnee
		{
			OFFSET 0.000000 -0.402270 0.000000 
			CHANNELS 1 Zrotation
			JOINT RightAnkle
			{
				OFFSET 0.000000 -0.404085 0.000000 
				CHANNELS 3 Zrotation Xrotation Yrotation
				End Site
				{
					OFFSET 0.204105 -0.089430 0.008415 
				}
			}
		}
	}
	JOINT LeftHip
	{
		OFFSET 0.052140 -0.069960 -0.075570 
		CHANNELS 3 Zrotation Xrotation Yrotation
		JOINT LeftKnee
		{
			OFFSET 0.000000 -0.402270 0.000000 
			CHANNELS 1 Zrotation
			JOINT LeftAnkle
			{
				OFFSET 0.000000 -0.404085 0.000000 
				CHANNELS 3 Zrotation Xrotation Yrotation
				End Site
				{
					OFFSET 0.204105 -0.089430 -0.008415 
				}
			}
		}
	}
}
MOTION
Frames: 14
Frame Time: 0.02
-0.06929 0.93301 -0.20444 200.91123 0 -11.97357 4.57523 11.26608 2.04836 -7.24398 -1.01952 0.04169 -28.2552 -32.20337 49.10192 68.54272 129.97571 -79.69841 -22.97539 -15.47281 39.02828 75.32436 130.46811 -23.24218 -59.11461 -2.17306 -7.07869 13.92287 47.89896 5.3285 -5.57939 0.00031 -21.42857 15.82219 10.38439 -7.98103 -41.22682 17.81863 13.3901 6.50325
-0.06881 0.93265 -0.20443 200.92443 0 -12.08151 4.35838 11.40744 1.93624 -8.22734 -0.58948 0.23616 -28.11221 -32.11891 47.75462 68.70787 130.16198 -79.69841 -22.97539 -16.32224 36.59192 76.95738 130.0938 -23.17437 -58.90219 -2.40405 -7.04539 13.92287 47.89896 5.3285 -5.52629 0.00025 -21.42857 15.93799 10.46315 -8.02595 -41.39341 17.89075 13.55302 6.5192
-0.0683 0.93229 -0.20431 201.00193 0 -12.19772 4.25437 11.58521 1.7775 -9.7724 -0.23417 0.38876 -27.12979 -32.19363 46.76567 68.96103 130.54439 -79.69841 -22.97539 -15.57743 34.42441 77.2097 129.52605 -22.92553 -58.85428 -2.81658 -7.01235 13.92287 47.89897 5.3285 -5.46961 0.00017 -21.42857 16.07143 10.53928 -8.09129 -41.57383 17.96929 13.68539 6.50148
-0.0678 0.93195 -0.20425 201.06026 0 -12.30547 4.09834 11.73675 1.63869 -11.03394 0.16331 0.55723 -26.5351 -32.22759 45.65311 69.1746 130.82313 -79.69841 -22.97539 -15.55972 32.18338 78.04395 129.08105 -22.77817 -58.69544 -3.1316 -6.97944 13.92287 47.89898 5.3285 -5.41761 0.0001 -21.42857 16.19518 10.61007 -8.15633 -41.74164 18.03992 13.82006 6.4977
-0.06731 0.93153 -0.20415 201.07754 0 -12.43406 3.94317 11.92841 1.49952 -12.41264 0.54362 0.73969 -25.9275 -32.14067 44.3584 69.39288 131.15602 -79.69841 -22.97539 -15.55816 29.69873 79.10253 128.49309 -22.57192 -58.68809 -3.49921 -6.94538 13.92287 47.89899 5.3285 -5.35217 2e-05 -21.42857 16.32709 10.7093 -8.18478 -41.93763 18.13255 14.00406 6.49904
-0.06679 0.93127 -0.20411 201.19523 0 -12.52088 3.81377 12.04597 1.35179 -13.68116 0.93377 0.88335 -25.1423 -32.33607 43.53419 69.61896 131.42674 -79.69841 -22.97539 -15.13373 27.79988 79.3468 128.15569 -22.4247 -58.40135 -3.81006 -6.91381 13.92287 47.89899 5.3285 -5.31388 -5e-05 -21.42857 16.44583 10.74827 -8.29376 -42.07774 18.18068 14.07803 6.48181
-0.06618 0.93142 -0.20431 201.57203 0 -12.48974 3.72937 11.94341 1.19692 -14.51327 1.38772 0.92326 -24.0705 -33.3036 43.92656 69.85543 131.46167 -79.69841 -22.97539 -13.93415 27.45314 77.76562 128.55327 -22.64039 -57.34738 -3.84864 -6.88918 13.92287 47.89898 5.3285 -5.35398 -0.00011 -21.42857 16.52308 10.62229 -8.62026 -42.05876 18.10249 13.85407 6.42332
-0.06554 0.93171 -0.20457 202.04758 0 -12.41623 3.66713 11.76622 1.035 -15.21497 1.84876 0.92652 -22.84683 -34.54287 44.78172 70.0941 131.43064 -79.69841 -22.97539 -12.36021 27.69051 75.39479 129.20949 -22.896 -56.00093 -3.83568 -6.86702 13.92287 47.89897 5.3285 -5.42118 -0.00015 -21.42857 16.58638 10.43551 -9.02665 -41.98305 17.97947 13.52076 6.34716
-0.06491 0.93194 -0.20479 202.47968 0 -12.3624 3.59409 11.6276 0.87382 -15.97271 2.29187 0.95105 -21.69239 -35.63522 45.42385 70.32405 131.44181 -79.69841 -22.97539 -10.95162 27.66771 73.32408 129.74988 -23.02436 -54.75741 -3.89622 -6.84363 13.92287 47.89896 5.3285 -5.47441 -0.0002 -21.42857 16.65652 10.27587 -9.39651 -41.93406 17.87806 13.23832 6.27794
-0.06431 0.93218 -0.20507 202.90931 0 -12.30718 3.52783 11.47082 0.72119 -16.76172 2.79352 0.95526 -20.50996 -36.83068 46.08882 70.58934 131.41003 -79.69841 -22.97539 -9.50616 27.63768 71.44717 130.27783 -23.58866 -53.63807 -3.76008 -6.82069 13.92287 47.89895 5.3285 -5.53445 -0.00026 -21.42857 16.7255 10.11809 -9.76906 -41.8818 17.77176 12.94938 6.2118
-0.06364 0.93242 -0.20525 203.36509 0 -12.24456 3.45147 11.3334 0.54985 -17.44972 3.17741 0.99291 -19.35822 -37.87569 46.81252 70.78089 131.44714 -79.69841 -22.97539 -8.0717 27.75005 69.00507 130.8938 -23.27997 -52.19866 -4.00835 -6.79742 13.92287 47.89895 5.3285 -5.58685 -0.0003 -21.42857 16.79297 9.94219 -10.15346 -41.82247 17.66482 12.64901 6.13592
-0.06283 0.93257 -0.20517 203.88193 0 -12.17264 3.33947 11.26984 0.32844 -17.8672 3.21977 1.13856 -18.354 -38.42 47.57433 70.76306 131.71035 -79.69841 -22.97538 -6.74624 28.18132 65.13552 131.7055 -20.35312 -49.85765 -5.42157 -6.77257 13.92287 47.89894 5.3285 -5.61112 -0.00027 -21.42857 16.86242 9.7297 -10.56131 -41.75885 17.56748 12.33865 6.03405
-0.06196 0.9327 -0.20499 204.41861 0 -12.09445 3.2163 11.22772 0.08919 -18.1889 3.14603 1.31829 -17.38635 -38.80527 48.37846 70.67129 132.04059 -79.69841 -22.97537 -5.45626 28.72122 60.74578 132.59446 -16.58497 -47.21964 -7.20545 -6.74733 13.92287 47.89894 5.3285 -5.62696 -0.00022 -21.42857 16.93007 9.50136 -10.976 -41.6895 17.47084 12.02169 5.92383
-0.06112 0.93285 -0.20486 204.93774 0 -12.01875 3.09938 11.17421 -0.14216 -18.56731 3.1359 1.478 -16.38802 -39.27596 49.16995 70.61652 132.32616 -79.69841 -22.97536 -4.16507 29.16579 56.63626 133.43908 -13.33151 -44.77646 -8.75931 -6.72231 13.92287 47.89895 5.3285 -5.64683 -0.00018 -21.42857 16.99689 9.28125 -11.38113 -41.62214 17.37369 11.71129 5.81978
